<svg width="24" height="24" viewBox="0 0 24 24" fill="none" xmlns="http://www.w3.org/2000/svg">
<path d="M2.75 6.5C2.75 6.36193 2.86193 6.25 3 6.25H19C19.1381 6.25 19.25 6.36193 19.25 6.5V19.5C19.25 19.6381 19.1381 19.75 19 19.75H3C2.86193 19.75 2.75 19.6381 2.75 19.5V6.5Z" stroke="#666666" stroke-width="1.5" stroke-linejoin="round"/>
<path d="M3.5 10.5H18.5" stroke="#666666" stroke-width="1.5"/>
<rect x="6" y="4" width="1.5" height="4" rx="0.75" fill="#666666"/>
<rect x="14.5" y="4" width="1.5" height="4" rx="0.75" fill="#666666"/>
<rect x="6" y="14" width="2" height="2" rx="0.5" fill="#666666"/>
<rect x="10" y="14" width="2" height="2" rx="0.5" fill="#666666"/>
<rect x="14" y="14" width="2" height="2" rx="0.5" fill="#666666"/>
</svg>
