<svg width="32" height="32" viewBox="0 0 32 32" fill="none" xmlns="http://www.w3.org/2000/svg">
<path d="M6.64258 5.00049C7.47101 5.00049 8.14258 5.67206 8.14258 6.50049C8.14257 6.52971 8.13935 6.5586 8.1377 6.5874H9.78906L10.8945 3.82471C11.2988 2.81406 12.2777 2.15088 13.3662 2.15088H18.6348C19.7233 2.15088 20.7022 2.81406 21.1064 3.82471L22.2119 6.5874H28.4502C30.4104 6.5874 32 8.17696 32 10.1372V26.0376C32 27.9978 30.4104 29.5874 28.4502 29.5874H3.5498C1.58956 29.5874 0 27.9978 0 26.0376V10.1372C0 8.31284 1.37643 6.80944 3.14746 6.60986C3.14483 6.57351 3.14257 6.53653 3.14258 6.49951C3.14284 5.67135 3.8144 5.00058 4.64258 5.00049H6.64258Z" fill="#393939"/>
<circle cx="15.9998" cy="17.9998" r="7.2" fill="#DDF0FF"/>
<circle cx="15.9998" cy="17.9998" r="4.95" fill="#008CFF"/>
</svg>
