<svg width="24" height="24" viewBox="0 0 24 24" fill="none" xmlns="http://www.w3.org/2000/svg">
<g clip-path="url(#clip0_1838_12938)">
<circle cx="12" cy="12" r="12" fill="#333333"/>
<mask id="path-2-outside-1_1838_12938" maskUnits="userSpaceOnUse" x="4.25391" y="5" width="15" height="13" fill="black">
<rect fill="white" x="4.25391" y="5" width="15" height="13"/>
<path fill-rule="evenodd" clip-rule="evenodd" d="M10.9326 7C10.583 7 10.2686 7.21285 10.1387 7.53746L9.70606 8.61914H7.96391C7.0195 8.61914 6.25391 9.38473 6.25391 10.3291V14.6928C6.25391 15.6372 7.0195 16.4028 7.9639 16.4028H15.9914C16.9358 16.4028 17.7014 15.6372 17.7014 14.6928V10.3291C17.7014 9.38473 16.9358 8.61914 15.9914 8.61914H14.2445L13.8119 7.53746C13.682 7.21285 13.3676 7 13.018 7H10.9326ZM11.9543 13.734C12.7344 13.734 13.3668 13.1016 13.3668 12.3215C13.3668 11.5414 12.7344 10.909 11.9543 10.909C11.1742 10.909 10.5418 11.5414 10.5418 12.3215C10.5418 13.1016 11.1742 13.734 11.9543 13.734ZM11.9543 14.934C13.3971 14.934 14.5668 13.7643 14.5668 12.3215C14.5668 10.8786 13.3971 9.70898 11.9543 9.70898C10.5115 9.70898 9.3418 10.8786 9.3418 12.3215C9.3418 13.7643 10.5115 14.934 11.9543 14.934Z"/>
</mask>
<path d="M10.1387 7.53746L11.2529 7.98313V7.98313L10.1387 7.53746ZM9.70606 8.61914V9.81914H10.5185L10.8202 9.06481L9.70606 8.61914ZM14.2445 8.61914L13.1304 9.06481L13.4321 9.81914H14.2445V8.61914ZM13.8119 7.53746L14.926 7.09179V7.09179L13.8119 7.53746ZM11.2529 7.98313C11.2005 8.11411 11.0736 8.2 10.9326 8.2V5.8C10.0923 5.8 9.33664 6.31159 9.02456 7.09179L11.2529 7.98313ZM10.8202 9.06481L11.2529 7.98313L9.02456 7.09179L8.59188 8.17347L10.8202 9.06481ZM9.70606 7.41914H7.96391V9.81914H9.70606V7.41914ZM7.96391 7.41914C6.35676 7.41914 5.05391 8.72199 5.05391 10.3291H7.45391C7.45391 10.0475 7.68224 9.81914 7.96391 9.81914V7.41914ZM5.05391 10.3291V14.6928H7.45391V10.3291H5.05391ZM5.05391 14.6928C5.05391 16.2999 6.35675 17.6028 7.9639 17.6028V15.2028C7.68224 15.2028 7.45391 14.9744 7.45391 14.6928H5.05391ZM7.9639 17.6028H15.9914V15.2028H7.9639V17.6028ZM15.9914 17.6028C17.5986 17.6028 18.9014 16.2999 18.9014 14.6928H16.5014C16.5014 14.9744 16.2731 15.2028 15.9914 15.2028V17.6028ZM18.9014 14.6928V10.3291H16.5014V14.6928H18.9014ZM18.9014 10.3291C18.9014 8.72199 17.5986 7.41914 15.9914 7.41914V9.81914C16.2731 9.81914 16.5014 10.0475 16.5014 10.3291H18.9014ZM15.9914 7.41914H14.2445V9.81914H15.9914V7.41914ZM12.6977 7.98313L13.1304 9.06481L15.3587 8.17347L14.926 7.09179L12.6977 7.98313ZM13.018 8.2C12.877 8.2 12.7501 8.11411 12.6977 7.98313L14.926 7.09179C14.614 6.31159 13.8583 5.8 13.018 5.8V8.2ZM10.9326 8.2H13.018V5.8H10.9326V8.2ZM12.1668 12.3215C12.1668 12.4388 12.0717 12.534 11.9543 12.534V14.934C13.3971 14.934 14.5668 13.7643 14.5668 12.3215H12.1668ZM11.9543 12.109C12.0717 12.109 12.1668 12.2041 12.1668 12.3215H14.5668C14.5668 10.8786 13.3971 9.70898 11.9543 9.70898V12.109ZM11.7418 12.3215C11.7418 12.2041 11.8369 12.109 11.9543 12.109V9.70898C10.5115 9.70898 9.3418 10.8786 9.3418 12.3215H11.7418ZM11.9543 12.534C11.8369 12.534 11.7418 12.4388 11.7418 12.3215H9.3418C9.3418 13.7643 10.5115 14.934 11.9543 14.934V12.534ZM13.3668 12.3215C13.3668 13.1016 12.7344 13.734 11.9543 13.734V16.134C14.0599 16.134 15.7668 14.4271 15.7668 12.3215H13.3668ZM11.9543 10.909C12.7344 10.909 13.3668 11.5414 13.3668 12.3215H15.7668C15.7668 10.2159 14.0599 8.50898 11.9543 8.50898V10.909ZM10.5418 12.3215C10.5418 11.5414 11.1742 10.909 11.9543 10.909V8.50898C9.84871 8.50898 8.1418 10.2159 8.1418 12.3215H10.5418ZM11.9543 13.734C11.1742 13.734 10.5418 13.1016 10.5418 12.3215H8.1418C8.1418 14.4271 9.84871 16.134 11.9543 16.134V13.734Z" fill="#F5F5F5" mask="url(#path-2-outside-1_1838_12938)"/>
</g>
<defs>
<clipPath id="clip0_1838_12938">
<rect width="24" height="24" fill="white"/>
</clipPath>
</defs>
</svg>
