<svg width="48" height="48" viewBox="0 0 48 48" fill="none" xmlns="http://www.w3.org/2000/svg">
<path fill-rule="evenodd" clip-rule="evenodd" d="M18.2457 13.8858C18.7013 12.7469 19.8044 12 21.0311 12H26.9689C28.1956 12 29.2987 12.7469 29.7543 13.8858L31 17H38C40.2091 17 42 18.7909 42 21V37C42 39.2091 40.2091 41 38 41H10C7.79086 41 6 39.2091 6 37V21C6 18.7909 7.79086 17 10 17H17L18.2457 13.8858ZM29.5 29C29.5 32.0376 27.0376 34.5 24 34.5C20.9624 34.5 18.5 32.0376 18.5 29C18.5 25.9624 20.9624 23.5 24 23.5C27.0376 23.5 29.5 25.9624 29.5 29ZM32 29C32 33.4183 28.4183 37 24 37C19.5817 37 16 33.4183 16 29C16 24.5817 19.5817 21 24 21C28.4183 21 32 24.5817 32 29ZM36 19C35.4477 19 35 19.4477 35 20C35 20.5523 35.4477 21 36 21H38C38.5523 21 39 20.5523 39 20C39 19.4477 38.5523 19 38 19H36Z" fill="#4D4D4D"/>
<path d="M36 8.5H44" stroke="#4D4D4D" stroke-width="1.5" stroke-linecap="round"/>
<path d="M40 4.5L40 12.5" stroke="#4D4D4D" stroke-width="1.5" stroke-linecap="round"/>
</svg>
