<svg width="24" height="24" viewBox="0 0 24 24" fill="none" xmlns="http://www.w3.org/2000/svg">
<path fill-rule="evenodd" clip-rule="evenodd" d="M8.71955 5.25722C9.02328 4.4979 9.7587 4 10.5765 4H13.4239C14.2417 4 14.9772 4.4979 15.2809 5.25722L15.8889 6.77734H20C21.1046 6.77734 22 7.67277 22 8.77734V18.1107C22 19.2152 21.1046 20.1107 20 20.1107H4C2.89543 20.1107 2 19.2152 2 18.1107V8.77734C2 7.67277 2.89543 6.77734 4 6.77734H8.1115L8.71955 5.25722ZM15.0547 13.4425C15.0547 15.13 13.6867 16.498 11.9991 16.498C10.3116 16.498 8.94358 15.13 8.94358 13.4425C8.94358 11.755 10.3116 10.3869 11.9991 10.3869C13.6867 10.3869 15.0547 11.755 15.0547 13.4425ZM16.4436 13.4425C16.4436 15.8971 14.4537 17.8869 11.9991 17.8869C9.54453 17.8869 7.55469 15.8971 7.55469 13.4425C7.55469 10.9879 9.54453 8.99805 11.9991 8.99805C14.4537 8.99805 16.4436 10.9879 16.4436 13.4425ZM18.25 8.5C17.8358 8.5 17.5 8.83579 17.5 9.25C17.5 9.66421 17.8358 10 18.25 10H19.75C20.1642 10 20.5 9.66421 20.5 9.25C20.5 8.83579 20.1642 8.5 19.75 8.5H18.25Z" fill="white"/>
</svg>
