<svg width="40" height="40" viewBox="0 0 40 40" fill="none" xmlns="http://www.w3.org/2000/svg">
<g clip-path="url(#clip0_1838_12946)">
<circle cx="20" cy="20" r="20" fill="white"/>
<rect width="24" height="24" transform="translate(8 7.5)" fill="white"/>
<path fill-rule="evenodd" clip-rule="evenodd" d="M16.7196 12.7572C17.0233 11.9979 17.7587 11.5 18.5765 11.5H21.4239C22.2417 11.5 22.9772 11.9979 23.2809 12.7572L23.8889 14.2773H28C29.1046 14.2773 30 15.1728 30 16.2773V25.6107C30 26.7152 29.1046 27.6107 28 27.6107H12C10.8954 27.6107 10 26.7152 10 25.6107V16.2773C10 15.1728 10.8954 14.2773 12 14.2773H16.1115L16.7196 12.7572ZM23.0547 20.9425C23.0547 22.63 21.6867 23.998 19.9991 23.998C18.3116 23.998 16.9436 22.63 16.9436 20.9425C16.9436 19.255 18.3116 17.8869 19.9991 17.8869C21.6867 17.8869 23.0547 19.255 23.0547 20.9425ZM24.4436 20.9425C24.4436 23.3971 22.4537 25.3869 19.9991 25.3869C17.5445 25.3869 15.5547 23.3971 15.5547 20.9425C15.5547 18.4879 17.5445 16.498 19.9991 16.498C22.4537 16.498 24.4436 18.4879 24.4436 20.9425ZM26.25 16C25.8358 16 25.5 16.3358 25.5 16.75C25.5 17.1642 25.8358 17.5 26.25 17.5H27.75C28.1642 17.5 28.5 17.1642 28.5 16.75C28.5 16.3358 28.1642 16 27.75 16H26.25Z" fill="#333333"/>
</g>
<defs>
<clipPath id="clip0_1838_12946">
<rect width="40" height="40" fill="white"/>
</clipPath>
</defs>
</svg>
