<svg width="16" height="16" viewBox="0 0 16 16" fill="none" xmlns="http://www.w3.org/2000/svg">
<g id="Property 1=ico_error_16">
<path id="Ellipse 155 (Stroke)" fill-rule="evenodd" clip-rule="evenodd" d="M8 12.8C10.651 12.8 12.8 10.651 12.8 8C12.8 5.34903 10.651 3.2 8 3.2C5.34903 3.2 3.2 5.34903 3.2 8C3.2 10.651 5.34903 12.8 8 12.8ZM8 14C11.3137 14 14 11.3137 14 8C14 4.68629 11.3137 2 8 2C4.68629 2 2 4.68629 2 8C2 11.3137 4.68629 14 8 14Z" fill="#EF5350"/>
<g id="Group 177314">
<rect id="Rectangle 1197" x="7.25" y="4.79883" width="1.5" height="3.8" fill="#EF5350"/>
<rect id="Rectangle 1198" x="7.25" y="9.49805" width="1.5" height="1.5" fill="#EF5350"/>
</g>
</g>
</svg>
