<svg width="24" height="24" viewBox="0 0 24 24" fill="none" xmlns="http://www.w3.org/2000/svg">
<path fill-rule="evenodd" clip-rule="evenodd" d="M2.80806 12C3.63807 10.0715 6.45934 6.25 12.0002 6.25C13.9011 6.25 15.4818 6.69975 16.772 7.36854L17.8796 6.26091C16.3261 5.36778 14.3808 4.75 12.0002 4.75C5.36305 4.75 2.10889 9.55216 1.29843 11.7354C1.28581 11.7688 1.27555 11.8031 1.26778 11.8382C1.24354 11.9472 1.24462 12.0575 1.26778 12.1618C1.27555 12.1969 1.28581 12.2312 1.29843 12.2646C1.82929 13.6947 3.40862 16.2484 6.30038 17.8401L7.41493 16.7256C4.82842 15.455 3.3669 13.2985 2.80806 12ZM8.94091 17.3209L7.75372 18.5081C8.97906 18.9674 10.3901 19.25 12.0002 19.25C18.6374 19.25 21.8915 14.4478 22.702 12.2646C22.7128 12.2361 22.7218 12.2069 22.729 12.1772C22.7633 12.0369 22.7575 11.8852 22.7035 11.7395L22.702 11.7354C22.2677 10.5656 21.1319 8.64388 19.1499 7.11188L18.0784 8.18345C19.7501 9.4192 20.7518 10.9763 21.1923 12C20.3623 13.9285 17.5411 17.75 12.0002 17.75C10.8692 17.75 9.85149 17.5908 8.94091 17.3209ZM15.7244 10.5374C15.9024 10.9905 16.0002 11.4838 16.0002 12C16.0002 14.2091 14.2093 16 12.0002 16C11.484 16 10.9907 15.9022 10.5377 15.7242L11.7721 14.4897C11.8472 14.4965 11.9233 14.5 12.0002 14.5C13.3809 14.5 14.5002 13.3807 14.5002 12C14.5002 11.9231 14.4967 11.847 14.4899 11.7719L15.7244 10.5374ZM14.8979 9.24259C14.1693 8.47711 13.1405 8 12.0002 8C9.79106 8 8.0002 9.79086 8.0002 12C8.0002 13.1403 8.47732 14.1691 9.24279 14.8977L10.304 13.8365C9.80971 13.3798 9.5002 12.726 9.5002 12C9.5002 10.6193 10.6195 9.5 12.0002 9.5C12.7263 9.5 13.38 9.8095 13.8367 10.3038L14.8979 9.24259Z" fill="#666666"/>
<path d="M5.59961 18.4004L18.3275 5.67247" stroke="#666666" stroke-width="1.5" stroke-linecap="round"/>
</svg>
