<svg width="32" height="32" viewBox="0 0 32 32" fill="none" xmlns="http://www.w3.org/2000/svg">
<g clip-path="url(#clip0_3916_6698)">
<path d="M0 4.00065C0 2.52789 1.19391 1.33398 2.66667 1.33398H9.96321C11.1657 1.33398 12.2195 2.13884 12.5359 3.299L18.6221 25.6148C19.316 28.1594 17.4005 30.6673 14.763 30.6673H4C1.79086 30.6673 0 28.8765 0 26.6673V4.00065Z" fill="#0664C2"/>
<path d="M10.667 4.00049H29.3337C30.8064 4.00049 32.0003 5.1944 32.0003 6.66716V28.0005C32.0003 29.4732 30.8064 30.6672 29.3337 30.6672H13.3337C11.8609 30.6672 10.667 29.4732 10.667 28.0005V4.00049Z" fill="#0664C2"/>
<rect x="2.66699" y="6.66699" width="26.6667" height="18.6667" rx="1.33333" fill="white"/>
<rect y="10.667" width="32" height="20" rx="2.66667" fill="#58ABFF"/>
</g>
<defs>
<clipPath id="clip0_3916_6698">
<rect width="32" height="32" fill="white"/>
</clipPath>
</defs>
</svg>
