<svg width="99" height="24" viewBox="0 0 99 24" fill="none" xmlns="http://www.w3.org/2000/svg">
<path fill-rule="evenodd" clip-rule="evenodd" d="M85.8747 6.43568C85.8682 6.43841 85.8616 6.44114 85.855 6.44385C85.8616 6.44114 85.8682 6.43841 85.8747 6.43568M97.7061 9.66768C97.6394 9.66768 97.5728 9.66748 97.5061 9.66709C97.5727 9.66748 97.6394 9.66768 97.7061 9.66768ZM81.1621 9.66768C81.3711 9.66768 81.5799 9.66576 81.7881 9.6618C81.6463 9.66449 81.5043 9.66624 81.3621 9.66709C81.2955 9.66748 81.2288 9.66768 81.1621 9.66768ZM94.6693 7.08437C95.5087 7.21867 96.4744 7.28928 97.5061 7.31192V9.46709C95.9111 9.45756 94.3412 9.33306 92.9707 9.04729C91.5389 8.74873 90.3461 8.27839 89.5655 7.59846L89.4341 7.48406L89.3028 7.59846C88.5221 8.27839 87.3293 8.74873 85.8975 9.04729C84.527 9.33306 82.9571 9.45756 81.3621 9.46709V7.31189C82.3855 7.2892 83.3467 7.2186 84.1836 7.08435C85.0706 6.94207 85.8334 6.72602 86.3836 6.40897L87.0313 6.03568H81.3621V3.97168H97.5061V6.03568H91.8193L92.4671 6.40897C93.0173 6.72604 93.78 6.94208 94.6693 7.08437ZM81.1861 17.6581C81.1861 16.915 81.4307 16.4399 81.8314 16.1422C82.2434 15.8362 82.8526 15.6933 83.6261 15.6933H93.5525C93.6526 15.6933 93.773 15.6798 93.872 15.6123C93.9872 15.5338 94.0341 15.4112 94.0341 15.2821C94.0341 15.1529 93.9872 15.0304 93.872 14.9518C93.773 14.8843 93.6526 14.8709 93.5525 14.8709H81.3621V13.1589H95.2421C96.0167 13.1589 96.626 13.2977 97.0378 13.5998C97.4377 13.893 97.6821 14.3631 97.6821 15.1061C97.6821 15.849 97.4377 16.3192 97.0378 16.6124C96.626 16.9144 96.0167 17.0533 95.2421 17.0533H85.3157C85.2061 17.0533 85.0845 17.0744 84.9866 17.15C84.8794 17.2329 84.8341 17.3544 84.8341 17.4821C84.8341 17.6097 84.8794 17.7313 84.9866 17.8141C85.0845 17.8898 85.2061 17.9109 85.3157 17.9109H97.5061V19.6229H83.6261C82.8526 19.6229 82.2434 19.48 81.8314 19.1739C81.4307 18.8763 81.1861 18.4012 81.1861 17.6581ZM97.5061 12.2309V10.1669H81.3621V12.2309H97.5061Z" fill="#1A1A1A"/>
<path fill-rule="evenodd" clip-rule="evenodd" d="M64.0256 6.91568H63.0576V3.97168H73.2528V6.91568H72.2848V10.1493H75.0256V3.97168H78.6736V19.6229H75.0256V13.2693H72.2848V16.6789H73.2528V19.6229H63.0576V16.6789H64.0256V6.91568ZM68.8128 6.91568H67.4976V16.6789H68.8128V6.91568Z" fill="#1A1A1A"/>
<path fill-rule="evenodd" clip-rule="evenodd" d="M51.6398 11.8916C51.6408 11.8916 51.6419 11.8917 51.6429 11.8918C51.6419 11.8917 51.6408 11.8916 51.6398 11.8916C51.6398 11.8916 51.6398 11.8916 51.6398 11.8916ZM55.8638 9.29168V11.7029H52.5678V3.97168H55.8638V6.34768H57.0734V3.97168H60.3694V11.7029H57.0734V9.29168H55.8638ZM47.9369 9.65313C47.2435 10.8142 45.9532 11.7372 44.5774 11.8658V8.55633C45.129 8.45083 45.5684 8.10739 45.8715 7.5704C46.2028 6.98357 46.3726 6.16641 46.3726 5.16208V3.97168H49.8446V5.16208C49.8446 6.16577 50.0141 6.94273 50.3493 7.48873C50.6572 7.99009 51.0983 8.2853 51.6398 8.38155V11.6909C50.2511 11.5767 48.9665 10.8021 48.2803 9.65313L48.1086 9.36562L47.9369 9.65313ZM44.4014 16.2149C44.4014 15.2074 44.7574 14.3577 45.3548 13.7603C45.9522 13.1629 46.8019 12.8069 47.8094 12.8069H57.1374C58.1449 12.8069 58.9945 13.1629 59.5919 13.7603C60.1893 14.3577 60.5454 15.2074 60.5454 16.2149C60.5454 17.2224 60.1893 18.0721 59.5919 18.6695C58.9945 19.2669 58.1449 19.6229 57.1374 19.6229H47.8094C46.8019 19.6229 45.9522 19.2669 45.3548 18.6695C44.7574 18.0721 44.4014 17.2224 44.4014 16.2149ZM48.067 16.2149C48.067 16.4942 48.178 16.7145 48.3898 16.8547C48.5873 16.9853 48.8494 17.0309 49.1294 17.0309H55.8174C56.0973 17.0309 56.3595 16.9853 56.5569 16.8547C56.7687 16.7145 56.8798 16.4942 56.8798 16.2149C56.8798 15.9356 56.7687 15.7152 56.5569 15.5751C56.3595 15.4444 56.0973 15.3989 55.8174 15.3989H49.1294C48.8494 15.3989 48.5873 15.4444 48.3898 15.5751C48.178 15.7152 48.067 15.9356 48.067 16.2149Z" fill="#1A1A1A"/>
<path fill-rule="evenodd" clip-rule="evenodd" d="M38.0649 14.3429V3.97168H41.7129V14.3429H38.0649ZM26.2729 13.8629H29.9209V15.2469C29.9209 15.6091 30.0425 15.9265 30.2699 16.1539C30.4972 16.3813 30.8146 16.5029 31.1769 16.5029H41.8889V19.6229H29.9449C28.8287 19.6229 27.9142 19.2517 27.2791 18.6167C26.6441 17.9816 26.2729 17.067 26.2729 15.9509V13.8629ZM30.2089 12.5829C28.7612 12.5829 27.6956 12.0906 26.9905 11.3191C26.2828 10.5448 25.9209 9.47001 25.9209 8.27728C25.9209 7.08455 26.2828 6.00976 26.9905 5.23541C27.6956 4.46394 28.7612 3.97168 30.2089 3.97168H32.1801C33.6278 3.97168 34.6934 4.46394 35.3985 5.23541C36.1062 6.00976 36.4681 7.08455 36.4681 8.27728C36.4681 9.47001 36.1062 10.5448 35.3985 11.3191C34.6934 12.0906 33.6278 12.5829 32.1801 12.5829H30.2089ZM29.5865 8.27728C29.5865 8.72881 29.6944 9.11367 29.9198 9.38945C30.1497 9.67068 30.4826 9.81488 30.8777 9.81488H31.5113C31.9064 9.81488 32.2393 9.67068 32.4692 9.38945C32.6946 9.11367 32.8025 8.72881 32.8025 8.27728C32.8025 7.82575 32.6946 7.44089 32.4692 7.16511C32.2393 6.88388 31.9064 6.73968 31.5113 6.73968H30.8777C30.4826 6.73968 30.1497 6.88388 29.9198 7.16511C29.6944 7.44089 29.5865 7.82575 29.5865 8.27728Z" fill="#1A1A1A"/>
<path fill-rule="evenodd" clip-rule="evenodd" d="M18.8418 5.15844C18.8418 4.46256 18.2777 3.89844 17.5818 3.89844H3.9018C3.20592 3.89844 2.6418 4.46256 2.6418 5.15844V18.8384C2.6418 19.5343 3.20592 20.0984 3.9018 20.0984H7.72822C7.98314 18.6658 9.23494 17.5781 10.7408 17.5781C12.2466 17.5781 13.4984 18.6658 13.7533 20.0984H17.5818C18.2777 20.0984 18.8418 19.5343 18.8418 18.8384V15.0099C20.274 14.7547 21.3613 13.5031 21.3613 11.9975C21.3613 10.4919 20.274 9.24032 18.8418 8.98508V5.15844Z" fill="#379BFF"/>
<mask id="mask0_1838_12723" style="mask-type:alpha" maskUnits="userSpaceOnUse" x="4" y="6" width="6" height="7">
<path d="M9.12008 9.47875C9.12008 7.68935 7.99184 6.23875 6.60008 6.23875C5.20832 6.23875 4.08008 7.68935 4.08008 9.47875C4.08008 11.2682 5.20832 12.7188 6.60008 12.7188C7.99184 12.7188 9.12008 11.2682 9.12008 9.47875Z" fill="white"/>
</mask>
<g mask="url(#mask0_1838_12723)">
<path d="M9.12008 9.47875C9.12008 7.68935 7.99184 6.23875 6.60008 6.23875C5.20832 6.23875 4.08008 7.68935 4.08008 9.47875C4.08008 11.2682 5.20832 12.7188 6.60008 12.7188C7.99184 12.7188 9.12008 11.2682 9.12008 9.47875Z" fill="white"/>
<ellipse cx="5.38582" cy="8.47432" rx="1.94907" ry="3.14016" transform="rotate(37.8476 5.38582 8.47432)" fill="#1A1A1A"/>
</g>
<mask id="mask1_1838_12723" style="mask-type:alpha" maskUnits="userSpaceOnUse" x="8" y="6" width="6" height="7">
<path d="M13.4404 9.47875C13.4404 7.68935 12.3121 6.23875 10.9204 6.23875C9.52863 6.23875 8.40039 7.68935 8.40039 9.47875C8.40039 11.2682 9.52863 12.7188 10.9204 12.7188C12.3121 12.7188 13.4404 11.2682 13.4404 9.47875Z" fill="white"/>
</mask>
<g mask="url(#mask1_1838_12723)">
<path d="M13.4404 9.47875C13.4404 7.68935 12.3121 6.23875 10.9204 6.23875C9.52863 6.23875 8.40039 7.68935 8.40039 9.47875C8.40039 11.2682 9.52863 12.7188 10.9204 12.7188C12.3121 12.7188 13.4404 11.2682 13.4404 9.47875Z" fill="white"/>
<ellipse cx="9.70613" cy="8.47432" rx="1.94907" ry="3.14016" transform="rotate(37.8476 9.70613 8.47432)" fill="#1A1A1A"/>
</g>
</svg>
