<svg width="20" height="20" viewBox="0 0 20 20" fill="none" xmlns="http://www.w3.org/2000/svg">
<circle cx="10" cy="10" r="8" fill="#34CF91"/>
<path d="M9.55464 5.87268C9.74021 5.50905 10.2598 5.50905 10.4454 5.87268L11.3832 7.71044C11.4559 7.8528 11.5922 7.95185 11.7501 7.97696L13.7877 8.30103C14.1909 8.36515 14.3514 8.85929 14.0629 9.14815L12.6049 10.608C12.492 10.7211 12.4399 10.8814 12.4648 11.0392L12.7863 13.0773C12.8499 13.4806 12.4295 13.786 12.0657 13.6008L10.2267 12.6653C10.0843 12.5929 9.91574 12.5929 9.77329 12.6653L7.93432 13.6008C7.57046 13.786 7.15012 13.4806 7.21372 13.0773L7.53518 11.0392C7.56008 10.8814 7.508 10.7211 7.39506 10.608L5.93706 9.14815C5.64858 8.85929 5.80914 8.36515 6.21231 8.30103L8.24995 7.97696C8.40779 7.95185 8.54412 7.85281 8.61677 7.71045L9.55464 5.87268Z" fill="white"/>
</svg>
