<svg width="24" height="24" viewBox="0 0 24 24" fill="none" xmlns="http://www.w3.org/2000/svg">
<path d="M14.8278 5.79605L14.5245 6.48198L14.8278 5.79605ZM14.1895 5.04816L13.4573 5.21086L14.1895 5.04816ZM20.5158 9.26415L21.0228 9.81685L20.5158 9.26415ZM19.2746 13.9943L19.7816 13.4416L19.2746 13.9943ZM18.9482 13.0529L19.6928 13.1433L18.9482 13.0529ZM20.5181 15.135L20.0112 15.6877L20.5181 15.135ZM18.7441 18.2076L18.9693 17.4922L18.7441 18.2076ZM19.9104 17.7538L19.2609 17.3788L19.9104 17.7538ZM16.1176 17.8623L16.5593 18.4684L16.1176 17.8623ZM14.7429 18.6432L15.0371 19.3331L14.7429 18.6432ZM13.7751 20.8165L14.5072 20.9792L13.7751 20.8165ZM9.25912 18.6444L8.96527 19.3345L9.25912 18.6444ZM9.91187 19.3981L9.17973 19.5608L9.91187 19.3981ZM3.46529 15.135L2.95831 14.5823L3.46529 15.135ZM4.72286 13.9814L5.22983 14.5341L4.72286 13.9814ZM4.72306 10.4193L4.21609 10.972L4.72306 10.4193ZM3.27366 8.02721L3.92318 8.40221L3.27366 8.02721ZM3.46372 9.26415L2.95675 9.81685L3.46372 9.26415ZM4.07149 6.64533L3.42197 6.27033L4.07149 6.64533ZM7.87965 6.54136L7.43777 5.93536L7.87965 6.54136ZM17.0787 6.71492L17.3039 7.43032L17.0787 6.71492ZM16.1143 6.53767L15.673 7.14407L16.1143 6.53767ZM13.7751 3.18346L14.5072 3.02076L13.7751 3.18346ZM6.91189 17.6812L6.68672 16.9658L6.91189 17.6812ZM7.87739 17.8593L7.43527 18.4652L7.87739 17.8593ZM19.908 6.64533L20.5576 6.27033L19.908 6.64533ZM18.7418 6.19147L18.967 6.90687L18.7418 6.19147ZM11.2033 3.15039H12.7989V1.65039H11.2033V3.15039ZM10.5452 5.20934L10.9592 3.34616L9.49493 3.02076L9.08089 4.88395L10.5452 5.20934ZM8.32153 7.14737C8.68002 6.88596 9.06717 6.66192 9.47725 6.4808L8.87125 5.10867C8.36211 5.33353 7.88196 5.61147 7.43777 5.93536L8.32153 7.14737ZM5.01257 6.90687L6.68933 7.43462L7.13967 6.00382L5.46291 5.47606L5.01257 6.90687ZM3.92318 8.40221L4.72101 7.02033L3.42197 6.27033L2.62414 7.65221L3.92318 8.40221ZM5.23003 9.86658L3.97069 8.71145L2.95675 9.81685L4.21609 10.972L5.23003 9.86658ZM5.74953 12.2012C5.74953 11.9461 5.76477 11.6949 5.79432 11.4484L4.30499 11.2698C4.26835 11.5754 4.24953 11.8863 4.24953 12.2012H5.74953ZM5.79418 12.9527C5.76472 12.7066 5.74953 12.4558 5.74953 12.2012H4.24953C4.24953 12.5155 4.26828 12.8259 4.30481 13.131L5.79418 12.9527ZM3.97226 15.6877L5.22983 14.5341L4.21589 13.4287L2.95831 14.5823L3.97226 15.6877ZM4.72257 17.3788L3.92474 15.9969L2.6257 16.7469L3.42353 18.1288L4.72257 17.3788ZM6.68672 16.9658L5.01413 17.4922L5.46447 18.923L7.13706 18.3966L6.68672 16.9658ZM9.55298 17.9544C9.114 17.7674 8.70055 17.5316 8.31951 17.2535L7.43527 18.4652C7.90739 18.8097 8.42019 19.1023 8.96527 19.3345L9.55298 17.9544ZM10.9592 20.6538L10.644 19.2354L9.17973 19.5608L9.49493 20.9792L10.9592 20.6538ZM12.7989 20.8496H11.2033V22.3496H12.7989V20.8496ZM13.3585 19.234L13.043 20.6538L14.5072 20.9792L14.8228 19.5594L13.3585 19.234ZM15.6759 17.2561C15.2966 17.5325 14.8853 17.7671 14.4487 17.9533L15.0371 19.3331C15.5792 19.1019 16.0894 18.8109 16.5593 18.4684L15.6759 17.2561ZM18.9693 17.4922L17.3076 16.9692L16.8573 18.4L18.519 18.923L18.9693 17.4922ZM20.0587 15.9969L19.2609 17.3788L20.5599 18.1288L21.3577 16.7469L20.0587 15.9969ZM18.7676 14.547L20.0112 15.6877L21.0251 14.5823L19.7816 13.4416L18.7676 14.547ZM18.2495 12.2012C18.2495 12.4592 18.2339 12.7133 18.2037 12.9626L19.6928 13.1433C19.7303 12.8342 19.7495 12.5198 19.7495 12.2012H18.2495ZM18.2032 11.436C18.2338 11.6865 18.2495 11.9418 18.2495 12.2012H19.7495C19.7495 11.881 19.7301 11.565 19.6922 11.2545L18.2032 11.436ZM20.0088 8.71145L18.767 9.8505L19.781 10.9559L21.0228 9.81685L20.0088 8.71145ZM19.2585 7.02033L20.0563 8.40221L21.3554 7.65221L20.5576 6.27033L19.2585 7.02033ZM17.3039 7.43032L18.967 6.90687L18.5166 5.47607L16.8535 5.99952L17.3039 7.43032ZM14.5245 6.48198C14.9318 6.66212 15.3165 6.88464 15.673 7.14407L16.5557 5.93127C16.114 5.60983 15.6369 5.33378 15.1311 5.11012L14.5245 6.48198ZM13.043 3.34616L13.4573 5.21086L14.9216 4.88546L14.5072 3.02076L13.043 3.34616ZM14.2495 12C14.2495 13.2426 13.2422 14.25 11.9995 14.25V15.75C14.0706 15.75 15.7495 14.0711 15.7495 12H14.2495ZM11.9995 9.75C13.2422 9.75 14.2495 10.7574 14.2495 12H15.7495C15.7495 9.92893 14.0706 8.25 11.9995 8.25V9.75ZM9.74953 12C9.74953 10.7574 10.7569 9.75 11.9995 9.75V8.25C9.92846 8.25 8.24953 9.92893 8.24953 12H9.74953ZM11.9995 14.25C10.7569 14.25 9.74953 13.2426 9.74953 12H8.24953C8.24953 14.0711 9.92846 15.75 11.9995 15.75V14.25ZM15.1311 5.11012C15.0019 5.05298 14.9381 4.95979 14.9216 4.88546L13.4573 5.21086C13.591 5.81221 14.0206 6.25918 14.5245 6.48198L15.1311 5.11012ZM21.0228 9.81685C21.6272 9.26242 21.7655 8.36255 21.3554 7.65221L20.0563 8.40221C20.1149 8.50369 20.0952 8.63224 20.0088 8.71145L21.0228 9.81685ZM19.6922 11.2545C19.6748 11.1121 19.724 11.0082 19.781 10.9559L18.767 9.8505C18.306 10.2734 18.1355 10.8806 18.2032 11.436L19.6922 11.2545ZM19.7816 13.4416C19.7246 13.3894 19.6755 13.2856 19.6928 13.1433L18.2037 12.9626C18.1363 13.5177 18.3069 14.1244 18.7676 14.547L19.7816 13.4416ZM21.3577 16.7469C21.7678 16.0366 21.6296 15.1367 21.0251 14.5823L20.0112 15.6877C20.0975 15.7669 20.1173 15.8954 20.0587 15.9969L21.3577 16.7469ZM18.519 18.923C19.3013 19.1693 20.1498 18.8391 20.5599 18.1288L19.2609 17.3788C19.2023 17.4803 19.0811 17.5274 18.9693 17.4922L18.519 18.923ZM16.5593 18.4684C16.6727 18.3858 16.7848 18.3772 16.8573 18.4L17.3076 16.9692C16.7215 16.7848 16.1206 16.9321 15.6759 17.2561L16.5593 18.4684ZM14.8228 19.5594C14.8395 19.484 14.9049 19.3894 15.0371 19.3331L14.4487 17.9533C13.9345 18.1725 13.4942 18.6234 13.3585 19.234L14.8228 19.5594ZM12.7989 22.3496C13.6191 22.3496 14.3293 21.7799 14.5072 20.9792L13.043 20.6538C13.0175 20.7682 12.9161 20.8496 12.7989 20.8496V22.3496ZM9.49493 20.9792C9.67286 21.7799 10.383 22.3496 11.2033 22.3496V20.8496C11.0861 20.8496 10.9846 20.7682 10.9592 20.6538L9.49493 20.9792ZM8.96527 19.3345C9.09755 19.3908 9.16297 19.4854 9.17973 19.5608L10.644 19.2354C10.5083 18.6246 10.0675 18.1735 9.55298 17.9544L8.96527 19.3345ZM3.42353 18.1288C3.83364 18.8391 4.68209 19.1693 5.46447 18.923L5.01413 17.4922C4.90236 17.5274 4.78116 17.4803 4.72257 17.3788L3.42353 18.1288ZM2.95831 14.5823C2.35386 15.1367 2.21559 16.0366 2.6257 16.7469L3.92474 15.9969C3.86615 15.8954 3.88591 15.7669 3.97226 15.6877L2.95831 14.5823ZM4.30481 13.131C4.32181 13.273 4.27275 13.3766 4.21589 13.4287L5.22983 14.5341C5.68973 14.1123 5.86051 13.5069 5.79418 12.9527L4.30481 13.131ZM4.21609 10.972C4.27296 11.0242 4.32203 11.1277 4.30499 11.2698L5.79432 11.4484C5.86079 10.894 5.69003 10.2885 5.23003 9.86658L4.21609 10.972ZM2.62414 7.65221C2.21403 8.36255 2.3523 9.26242 2.95675 9.81685L3.97069 8.71145C3.88434 8.63224 3.86459 8.50369 3.92318 8.40221L2.62414 7.65221ZM5.46291 5.47606C4.68052 5.22981 3.83208 5.56 3.42197 6.27033L4.72101 7.02033C4.77959 6.91886 4.9008 6.87169 5.01257 6.90687L5.46291 5.47606ZM7.43777 5.93536C7.32434 6.01806 7.21225 6.02666 7.13967 6.00382L6.68933 7.43462C7.27571 7.61918 7.87676 7.47167 8.32153 7.14737L7.43777 5.93536ZM9.08089 4.88395C9.06437 4.95831 9.00057 5.05155 8.87125 5.10867L9.47725 6.4808C9.98143 6.25813 10.4115 5.81102 10.5452 5.20934L9.08089 4.88395ZM16.8535 5.99952C16.781 6.02234 16.6691 6.01379 16.5557 5.93127L15.673 7.14407C16.1176 7.46766 16.7181 7.61469 17.3039 7.43032L16.8535 5.99952ZM12.7989 3.15039C12.9161 3.15039 13.0175 3.23177 13.043 3.34616L14.5072 3.02076C14.3293 2.22007 13.6191 1.65039 12.7989 1.65039V3.15039ZM7.13706 18.3966C7.20967 18.3738 7.32182 18.3824 7.43527 18.4652L8.31951 17.2535C7.87468 16.9289 7.27336 16.7812 6.68672 16.9658L7.13706 18.3966ZM20.5576 6.27033C20.1474 5.56 19.299 5.22981 18.5166 5.47607L18.967 6.90687C19.0787 6.87169 19.1999 6.91886 19.2585 7.02033L20.5576 6.27033ZM11.2033 1.65039C10.383 1.65039 9.67286 2.22007 9.49493 3.02076L10.9592 3.34616C10.9846 3.23177 11.0861 3.15039 11.2033 3.15039V1.65039Z" fill="#666666"/>
</svg>
