<svg width="16" height="16" viewBox="0 0 16 16" fill="none" xmlns="http://www.w3.org/2000/svg">
<g id="Property 1=ico_success_16">
<path id="Ellipse 155 (Stroke)" fill-rule="evenodd" clip-rule="evenodd" d="M8 12.8C10.651 12.8 12.8 10.651 12.8 8C12.8 5.34903 10.651 3.2 8 3.2C5.34903 3.2 3.2 5.34903 3.2 8C3.2 10.651 5.34903 12.8 8 12.8ZM8 14C11.3137 14 14 11.3137 14 8C14 4.68629 11.3137 2 8 2C4.68629 2 2 4.68629 2 8C2 11.3137 4.68629 14 8 14Z" fill="#059952"/>
<path id="Vector 1995" d="M5.19922 7.59961L7.44922 9.59961L10.6992 6.59961" stroke="#059952" stroke-width="1.2"/>
</g>
</svg>
