<svg width="197" height="76" viewBox="0 0 197 76" fill="none" xmlns="http://www.w3.org/2000/svg">
<path fill-rule="evenodd" clip-rule="evenodd" d="M57.8399 12.2703C57.8399 10.0435 56.0348 8.23828 53.8079 8.23828H10.0319C7.80513 8.23828 5.99994 10.0435 5.99994 12.2703V56.0463C5.99994 58.2731 7.80513 60.0783 10.0319 60.0783H22.2798C23.0957 55.4942 27.1013 52.0137 31.9199 52.0137C36.7385 52.0137 40.7441 55.4942 41.56 60.0783H53.8079C56.0347 60.0783 57.8399 58.2731 57.8399 56.0463V43.7992C62.4237 42.983 65.9038 38.9775 65.9038 34.1592C65.9038 29.3409 62.4237 25.3354 57.8399 24.5192V12.2703Z" fill="#58ABFF"/>
<mask id="mask0_1874_4344" style="mask-type:alpha" maskUnits="userSpaceOnUse" x="12" y="15" width="15" height="19">
<path d="M26.4087 24.5859C26.4087 19.6154 23.2747 15.5859 19.4087 15.5859C15.5427 15.5859 12.4087 19.6154 12.4087 24.5859C12.4087 29.5565 15.5427 33.5859 19.4087 33.5859C23.2747 33.5859 26.4087 29.5565 26.4087 24.5859Z" fill="white"/>
</mask>
<g mask="url(#mask0_1874_4344)">
<path d="M26.7354 26.0949C26.7354 20.3688 23.125 15.7269 18.6714 15.7269C14.2178 15.7269 10.6074 20.3688 10.6074 26.0949C10.6074 31.821 14.2178 36.4629 18.6714 36.4629C23.125 36.4629 26.7354 31.821 26.7354 26.0949Z" fill="white"/>
<ellipse cx="14.786" cy="22.8807" rx="6.23702" ry="10.0485" transform="rotate(37.8476 14.786 22.8807)" fill="#1A1A1A"/>
</g>
<mask id="mask1_1874_4344" style="mask-type:alpha" maskUnits="userSpaceOnUse" x="26" y="15" width="15" height="19">
<path d="M40.4087 24.5859C40.4087 19.6154 37.2747 15.5859 33.4087 15.5859C29.5427 15.5859 26.4087 19.6154 26.4087 24.5859C26.4087 29.5565 29.5427 33.5859 33.4087 33.5859C37.2747 33.5859 40.4087 29.5565 40.4087 24.5859Z" fill="white"/>
</mask>
<g mask="url(#mask1_1874_4344)">
<path d="M40.5596 26.0949C40.5596 20.3688 36.9493 15.7269 32.4956 15.7269C28.042 15.7269 24.4316 20.3688 24.4316 26.0949C24.4316 31.821 28.042 36.4629 32.4956 36.4629C36.9493 36.4629 40.5596 31.821 40.5596 26.0949Z" fill="white"/>
<ellipse cx="28.6102" cy="22.8807" rx="6.23702" ry="10.0485" transform="rotate(37.8476 28.6102 22.8807)" fill="#1A1A1A"/>
</g>
<path d="M22.7036 38.6133C22.7036 39.7653 23.8556 40.9173 25.5836 40.9173C27.3116 40.9173 28.4636 39.7653 28.4636 38.6133" stroke="#1A1A1A" stroke-width="2" stroke-linecap="round" stroke-linejoin="round"/>
<path fill-rule="evenodd" clip-rule="evenodd" d="M119.248 58.5458C121.473 58.4568 123.205 56.581 123.116 54.356L121.368 10.6149C121.279 8.38986 119.403 6.65818 117.178 6.74709L73.4369 8.49499C71.2119 8.5839 69.4802 10.4597 69.5691 12.6848L70.1925 28.2847C74.7135 29.0006 78.2515 32.8246 78.4413 37.5731C78.631 42.3215 75.4094 46.4156 70.9599 47.4899L71.317 56.4259C71.4059 58.6509 73.2817 60.3826 75.5068 60.2937L87.7453 59.8046C88.7439 64.352 92.8851 67.6693 97.6995 67.4769C102.514 67.2845 106.377 63.6474 107.01 59.0348L119.248 58.5458Z" fill="#34CF91"/>
<circle cx="95.4082" cy="21.5859" r="6" fill="white"/>
<circle cx="109.408" cy="21.5859" r="6" fill="white"/>
<circle cx="95.4082" cy="21.5859" r="2" fill="#1A1A1A"/>
<circle cx="109.408" cy="21.5859" r="2" fill="#1A1A1A"/>
<path d="M102.408 27.5859V31.5859" stroke="#1A1A1A" stroke-width="2" stroke-linecap="round" stroke-linejoin="round"/>
<path fill-rule="evenodd" clip-rule="evenodd" d="M131.757 53.3988C131.258 55.5689 132.613 57.7329 134.783 58.2321L177.444 68.0473C179.614 68.5466 181.778 67.1921 182.278 65.022L192.093 22.3605C192.592 20.1904 191.238 18.0264 189.067 17.5271L176.869 14.7207C174.885 18.6452 170.417 20.8659 165.939 19.8357C161.461 18.8054 158.413 14.8556 158.343 10.4584L146.406 7.71198C144.236 7.2127 142.072 8.56718 141.573 10.7373L138.826 22.6735C134.176 22.4411 129.887 25.5643 128.806 30.26C127.726 34.9557 130.219 39.6396 134.504 41.4627L131.757 53.3988Z" fill="#FF6F6F"/>
<path d="M155.264 35.3848C156.595 35.9175 158.167 36.7346 162.053 35.7856" stroke="#1A1A1A" stroke-width="2" stroke-linecap="round" stroke-linejoin="round"/>
<mask id="mask2_1874_4344" style="mask-type:alpha" maskUnits="userSpaceOnUse" x="146" y="18" width="11" height="12">
<path d="M155.185 25.5892C153.683 29.4021 151.914 29.862 149.321 29.293C146.727 28.724 145.531 26.0908 146.227 22.9209C146.922 19.751 146.227 17.8789 151.991 19.1435C158.39 20.5474 156.354 22.4575 155.185 25.5892Z" fill="white"/>
</mask>
<g mask="url(#mask2_1874_4344)">
<path d="M161.95 25.9384C160.33 33.3202 153.322 37.3039 147.282 35.9788C141.242 34.6537 138.458 28.5217 140.078 21.1398C141.697 13.758 147.462 11.0184 153.502 12.3434C159.542 13.6685 163.569 18.5565 161.95 25.9384Z" fill="white"/>
<path d="M156.598 26.0286C155.5 29.5385 153.35 30.993 151.446 30.3973C150.159 29.9949 148.604 27.3813 149.702 23.8714C150.8 20.3615 152.95 18.907 154.854 19.5027C156.758 20.0984 157.696 22.5188 156.598 26.0286Z" fill="#1A1A1A"/>
</g>
<path d="M174.959 27.2602C170.256 26.9576 166.205 29.3789 166.205 29.3789C166.205 29.3789 170.476 29.991 172.389 33.6436" stroke="#1A1A1A" stroke-width="2" stroke-linecap="round" stroke-linejoin="round"/>
<circle cx="158.908" cy="31.0859" r="1.5" fill="#1A1A1A"/>
</svg>
