<svg width="223" height="68" viewBox="0 0 223 68" fill="none" xmlns="http://www.w3.org/2000/svg">
<path d="M45.0273 26.5006C43.5273 25.1673 39.6273 23.9006 36.0273 25.5006C32.487 27.0741 28.6565 26.1975 27.1038 25.534C27.0518 25.5117 27.0046 25.485 26.9567 25.4549C25.9048 24.7929 23.2638 23.9369 20.5273 25.5006C17.0273 27.5006 13.5273 27.5013 11.5273 25.5006C9.52734 23.5 3.02734 25.5013 3.52734 27.5006" stroke="#FF6F6F" stroke-width="3" stroke-linecap="round" stroke-linejoin="round"/>
<path d="M91.9113 59.2768C56.714 63.9627 -10.1608 68.0781 3.9181 47.0527C21.5167 20.771 155.059 23.2158 96.0523 66" stroke="#FF6F6F" stroke-width="3" stroke-linecap="round" stroke-linejoin="round"/>
<path d="M19.212 6.07H22.16V25.87H19.212V6.07ZM16.286 8.094C16.286 14.188 14.284 19.138 7.2 22.548L5.682 20.238C10.72 17.818 12.854 14.782 13.272 10.426H6.738V8.094H16.286ZM24.6385 16.652H32.1185V15.31H26.8605V9.81H37.5085V8.666H26.8385V6.444H40.3905V11.856H29.7425V13.088H40.7865V15.31H35.0665V16.652H42.5685V19.006H24.6385V16.652ZM26.6185 20.062H40.5225V25.826H37.5965V22.394H26.6185V20.062ZM18.31 37.092H21.258V41.91H23.854V44.308H21.258V48.994H18.31V37.092ZM8.344 49.83H21.258V56.672H8.344V49.83ZM18.398 52.14H11.226V54.362H18.398V52.14ZM5.66 38.83H10.016V36.938H12.942V38.83H17.298V41.118H5.66V38.83ZM11.49 41.668C14.372 41.668 16.374 43.12 16.374 45.254C16.374 47.388 14.372 48.796 11.49 48.796C8.608 48.796 6.606 47.388 6.606 45.254C6.606 43.12 8.608 41.668 11.49 41.668ZM11.49 43.846C10.258 43.846 9.422 44.308 9.422 45.254C9.422 46.178 10.258 46.684 11.49 46.684C12.7 46.684 13.536 46.178 13.536 45.254C13.536 44.308 12.7 43.846 11.49 43.846ZM29.4125 39.314C29.4125 44.396 28.9505 48.796 26.5525 52.734L24.2865 51.524C26.2445 48.444 26.8165 45.518 26.9485 41.668H24.9685V39.314H29.4125ZM33.8565 39.314C33.8565 41.074 33.8125 42.79 33.6805 44.462H35.1765V37.488H37.9265V55.99H35.1765V46.816H33.3945C32.9765 49.236 32.2505 51.546 30.9305 53.68L28.6865 52.448C30.8425 49.06 31.2825 45.716 31.3705 41.668H30.0065V39.314H33.8565ZM39.0265 37.092H41.8205V56.892H39.0265V37.092ZM61.0873 37.07H64.0353V41.228H66.6313V43.604H64.0353V47.718H61.0873V37.07ZM50.9233 48.51H64.0353V53.57H53.8493V54.604H64.6073V56.76H50.9673V51.59H61.1313V50.622H50.9233V48.51ZM48.4373 38.5H52.7933V36.916H55.7193V38.5H60.0753V40.7H48.4373V38.5ZM54.2673 41.118C57.1933 41.118 59.1513 42.372 59.1513 44.374C59.1513 46.376 57.1933 47.586 54.2673 47.586C51.3193 47.586 49.3833 46.376 49.3833 44.374C49.3833 42.372 51.3193 41.118 54.2673 41.118ZM54.2673 43.186C52.9693 43.186 52.1993 43.56 52.1993 44.374C52.1993 45.166 52.9693 45.54 54.2673 45.54C55.5433 45.54 56.3133 45.166 56.3133 44.374C56.3133 43.56 55.5433 43.186 54.2673 43.186ZM85.7882 37.07H88.7362V56.87H85.7882V37.07ZM82.8622 39.094C82.8622 45.188 80.8602 50.138 73.7762 53.548L72.2582 51.238C77.2962 48.818 79.4302 45.782 79.8482 41.426H73.3142V39.094H82.8622ZM94.2727 49.698H107.781V56.892H104.855V51.986H94.2727V49.698ZM104.855 37.092H107.781V48.796H104.855V44.198H101.775C101.225 46.42 99.2007 47.938 96.6707 47.938C93.7007 47.938 91.4347 45.87 91.4347 43.01C91.4347 40.172 93.7007 38.104 96.6707 38.104C99.2007 38.104 101.247 39.622 101.775 41.844H104.855V37.092ZM96.6707 40.59C95.2847 40.59 94.2287 41.492 94.2287 43.01C94.2287 44.572 95.2847 45.452 96.6707 45.452C98.0567 45.452 99.0907 44.572 99.0907 43.01C99.0907 41.492 98.0567 40.59 96.6707 40.59Z" fill="#1A1A1A"/>
<path d="M52.571 6.356C57.081 6.356 59.765 7.544 59.765 9.722C59.765 11.922 57.081 13.11 52.571 13.11C48.039 13.11 45.377 11.922 45.377 9.722C45.377 7.544 48.039 6.356 52.571 6.356ZM52.571 8.49C49.733 8.49 48.413 8.886 48.413 9.722C48.413 10.602 49.733 10.976 52.571 10.976C55.387 10.976 56.707 10.602 56.707 9.722C56.707 8.886 55.387 8.49 52.571 8.49ZM43.617 13.99H61.503V16.3H43.617V13.99ZM45.641 17.356H59.347V22.504H48.545V23.56H59.875V25.76H45.685V20.48H56.465V19.534H45.641V17.356ZM76.2599 18.39C80.5279 18.39 83.2999 19.82 83.2999 22.152C83.2999 24.484 80.5279 25.892 76.2599 25.892C71.9699 25.892 69.2199 24.484 69.2199 22.152C69.2199 19.82 71.9699 18.39 76.2599 18.39ZM76.2599 20.59C73.6199 20.59 72.1459 21.118 72.1459 22.152C72.1459 23.186 73.6199 23.692 76.2599 23.692C78.8999 23.692 80.3739 23.186 80.3739 22.152C80.3739 21.118 78.8999 20.59 76.2599 20.59ZM69.4399 6.972H83.1679V8.578C83.1679 10.14 83.1679 11.834 82.6399 13.88L79.7359 13.572C80.1759 11.856 80.2419 10.558 80.2639 9.26H69.4399V6.972ZM67.4599 14.892H73.9939V11.482H76.9199V14.892H85.2799V17.224H67.4599V14.892ZM86.3944 17.07H104.324V19.446H100.21V25.87H97.2404V19.446H93.3904V25.87H90.3764V19.446H86.3944V17.07ZM95.3044 6.752C99.5504 6.752 102.476 8.468 102.476 11.174C102.476 13.88 99.5504 15.618 95.3044 15.618C91.0584 15.618 88.1324 13.88 88.1324 11.174C88.1324 8.468 91.0584 6.752 95.3044 6.752ZM95.3044 9.062C92.7304 9.062 91.1464 9.81 91.1464 11.174C91.1464 12.582 92.7304 13.286 95.3044 13.286C97.8784 13.286 99.4844 12.582 99.4844 11.174C99.4844 9.81 97.8784 9.062 95.3044 9.062ZM118.001 6.092H120.927V13.77H123.743V16.19H120.927V25.892H118.001V6.092ZM105.263 8.974H109.575V6.422H112.545V8.974H116.813V11.306H105.263V8.974ZM111.071 12.384C113.975 12.384 116.109 14.342 116.109 17.114C116.109 19.886 113.975 21.844 111.071 21.844C108.189 21.844 106.033 19.886 106.033 17.114C106.033 14.342 108.189 12.384 111.071 12.384ZM111.071 14.76C109.751 14.76 108.849 15.618 108.849 17.114C108.849 18.61 109.751 19.468 111.071 19.468C112.369 19.468 113.293 18.61 113.293 17.114C113.293 15.618 112.369 14.76 111.071 14.76ZM126.177 7.72H140.587V9.612C140.587 12.076 140.587 14.87 139.817 19.116L136.869 18.808C137.595 15.112 137.639 12.362 137.639 10.074H126.177V7.72ZM124.351 21.14H130.643V14.364H133.569V21.14H142.259V23.516H124.351V21.14ZM119.147 37.356C123.657 37.356 126.341 38.544 126.341 40.722C126.341 42.922 123.657 44.11 119.147 44.11C114.615 44.11 111.953 42.922 111.953 40.722C111.953 38.544 114.615 37.356 119.147 37.356ZM119.147 39.49C116.309 39.49 114.989 39.886 114.989 40.722C114.989 41.602 116.309 41.976 119.147 41.976C121.963 41.976 123.283 41.602 123.283 40.722C123.283 39.886 121.963 39.49 119.147 39.49ZM110.193 44.99H128.079V47.3H110.193V44.99ZM112.217 48.356H125.923V53.504H115.121V54.56H126.451V56.76H112.261V51.48H123.041V50.534H112.217V48.356ZM134.916 38.83H143.87V41.14H137.842V49.764C140.636 49.742 142.638 49.61 144.86 49.192L145.146 51.568C142.506 52.074 140.13 52.162 136.522 52.162H134.916V38.83ZM147.72 37.07H150.624V56.936H147.72V46.244H142.946V43.89H147.72V37.07ZM152.927 40.018H156.249V37.576H159.131V40.018H162.387V42.328H152.927V40.018ZM157.701 43.186C160.231 43.186 162.035 45.144 162.035 47.916C162.035 50.71 160.231 52.646 157.701 52.646C155.171 52.646 153.345 50.71 153.345 47.916C153.345 45.144 155.171 43.186 157.701 43.186ZM157.701 45.606C156.667 45.606 155.941 46.442 155.941 47.916C155.941 49.412 156.667 50.226 157.701 50.226C158.713 50.226 159.461 49.412 159.461 47.916C159.461 46.442 158.713 45.606 157.701 45.606ZM167.205 37.07H169.977V56.87H167.205V47.454H165.775V56.034H163.047V37.444H165.775V45.1H167.205V37.07ZM184.533 37.048H187.481V44.594H190.209V46.992H187.481V56.848H184.533V37.048ZM182.201 39.094C182.201 45.078 179.957 50.138 173.357 53.46L171.707 51.26C176.283 48.906 178.703 45.826 179.209 41.448H172.829V39.094H182.201ZM190.928 52.206H194.822V47.388C193.348 46.442 192.468 45.056 192.468 43.34C192.468 40.084 195.614 37.994 199.882 37.994C204.15 37.994 207.296 40.084 207.296 43.34C207.296 45.056 206.416 46.442 204.942 47.388V52.206H208.858V54.582H190.928V52.206ZM199.882 40.282C197.154 40.282 195.35 41.404 195.35 43.34C195.35 45.276 197.154 46.398 199.882 46.398C202.588 46.398 204.392 45.276 204.392 43.34C204.392 41.404 202.588 40.282 199.882 40.282ZM197.77 52.206H201.994V48.488C201.334 48.598 200.63 48.664 199.882 48.664C199.134 48.664 198.43 48.598 197.77 48.488V52.206Z" fill="#808080"/>
<line x1="210.864" y1="38.3757" x2="220.876" y2="37.5051" stroke="#FF6F6F" stroke-width="3" stroke-linecap="round"/>
<line x1="215.599" y1="32.3942" x2="216.311" y2="42.8049" stroke="#FF6F6F" stroke-width="3" stroke-linecap="round"/>
</svg>
