<svg width="278" height="8" viewBox="0 0 278 8" fill="none" xmlns="http://www.w3.org/2000/svg">
<path d="M0.381927 1.95466C0.47891 1.9149 0.583423 1.88806 0.691315 1.87522C0.739489 1.87243 0.787854 1.87243 0.836029 1.87522H1.06058C1.61448 1.85138 2.10851 1.85138 2.6225 1.84741C4.65349 1.84741 6.66454 1.84741 8.67557 1.84741H11.7495C11.7252 1.77987 11.7085 1.71074 11.6996 1.64086C11.8792 1.06095 12.1637 1.14438 12.2385 1.06494C12.3833 1.01815 12.5338 0.983531 12.6876 0.961666L13.037 0.914004C13.2565 0.890172 13.4711 0.874278 13.6857 0.858391C15.3773 0.759091 17.0191 0.743193 18.6758 0.723333L23.6211 0.691574H32.2141C14.0799 0.191105 29.2999 0.0282335 85.4291 0.0997292L123.429 0.0719466L231.161 0.0123573H258.363C262.954 0.0123573 267.555 -0.0154466 272.17 0.0123573C273.323 0.0123573 274.476 0.012367 275.664 0.0719466C275.953 0.0719466 276.247 0.0719369 276.552 0.111657C276.707 0.111657 276.856 0.111647 277.051 0.151367C277.175 0.161703 277.297 0.183032 277.415 0.214932C277.45 0.223489 277.484 0.235484 277.515 0.250666C277.578 0.275058 277.638 0.304338 277.695 0.338062C277.796 0.406642 277.876 0.492801 277.929 0.589899C277.981 0.686997 278.005 0.792432 277.999 0.898101C277.879 1.33899 277.5 1.43036 277.575 1.40653C277.523 1.4301 277.468 1.44877 277.41 1.46214H277.33H277.23C276.911 1.49819 276.59 1.5194 276.267 1.52568L275.394 1.55349C273.079 1.59718 270.788 1.59718 268.498 1.60512H265.319C265.343 1.7427 265.308 1.88279 265.219 2.00232L265.139 2.10955H266.232C266.906 2.10955 267.58 2.10955 268.273 2.16119L268.812 2.19695C269.03 2.21706 269.245 2.25161 269.456 2.30022C269.56 2.32822 269.659 2.36694 269.75 2.4154C269.903 2.49246 270.021 2.60541 270.089 2.73853C270.157 2.87166 270.171 3.01833 270.129 3.15816C270.03 3.42031 269.93 3.50373 269.566 3.66261C269.46 3.68885 269.351 3.70616 269.241 3.71424C269.017 3.71424 268.867 3.71424 268.697 3.71424L254.381 3.82147H254.6L254.929 3.85723L255.144 3.90092C255.315 3.93388 255.47 4.00404 255.593 4.10349C255.67 4.1749 255.727 4.25806 255.761 4.34779C255.795 4.43752 255.806 4.5319 255.792 4.62505C255.779 4.71821 255.741 4.80812 255.682 4.88923C255.623 4.97034 255.543 5.04089 255.448 5.09648C255.368 5.13883 255.283 5.17476 255.194 5.20374L254.85 5.30701C254.492 5.38401 254.126 5.43714 253.757 5.46588H254.066C254.331 5.48574 254.59 5.5056 254.875 5.54134L255.104 5.5771C255.25 5.59772 255.388 5.64383 255.508 5.71214C255.653 5.64461 255.982 6.40723 255.673 6.47873C255.595 6.56326 255.492 6.63142 255.374 6.67732C255.274 6.71837 255.169 6.74909 255.059 6.7687C254.522 6.85842 253.976 6.91156 253.427 6.92756C251.362 7.01494 249.336 7.01098 247.295 7.01496L241.197 6.9792L229.011 6.89183C224.954 6.89183 220.882 6.89183 216.82 6.89183L202.039 6.93551H202.728C210.557 7.02687 216.735 7.05865 221.031 7.28902L221.436 7.31683L221.65 7.34066H221.695C221.738 7.35317 221.777 7.3752 221.805 7.4042C221.829 7.44694 221.835 7.49472 221.823 7.5405C221.81 7.58627 221.779 7.62761 221.735 7.65842L221.675 7.67827H221.65C221.065 7.7702 220.47 7.81413 219.874 7.80935C217.254 7.77758 214.08 7.80935 210.512 7.80935L198.765 7.84114L145.625 7.90468L71.5016 7.98014L52.9632 8C46.7804 8 40.5926 7.96425 34.4098 7.95234L25.1281 7.92056H20.4872C20.103 7.92056 19.7188 7.92056 19.3246 7.92056H18.7307H18.4113C18.1946 7.89717 17.984 7.84621 17.7876 7.76962C16.9592 7.25326 17.054 7.06658 17.3784 6.97522C14.6238 7.00303 11.8343 7.04673 8.97 7.01496C8.25142 7.01496 7.52785 6.98714 6.78931 6.95139C6.42004 6.93153 6.05078 6.91167 5.66653 6.87592L5.08264 6.80841C4.86807 6.77266 4.65351 6.73692 4.43893 6.68925C4.30567 6.65564 4.17558 6.61449 4.04968 6.56612C3.89913 6.5143 3.76695 6.43374 3.66483 6.33157C3.5627 6.2294 3.49381 6.10875 3.4642 5.98034C3.4346 5.85192 3.44522 5.71968 3.49512 5.59531C3.54502 5.47094 3.63267 5.35827 3.75031 5.26728C3.82572 5.20902 3.9136 5.16195 4.0098 5.12827L3.8501 5.09648L3.60559 5.04087L3.48083 5.01306L3.28622 4.94157C3.18642 4.8661 3.11655 4.94159 2.7872 4.56425C2.72981 4.46828 2.69718 4.36409 2.69128 4.25789C2.68539 4.1517 2.70634 4.04566 2.75287 3.94603C2.7994 3.8464 2.87058 3.75522 2.96219 3.67788C3.0538 3.60054 3.164 3.53862 3.28622 3.49579L3.41595 3.46003C2.8371 3.42826 2.25322 3.38457 1.64941 3.31307C1.37995 3.27335 1.12048 3.25747 0.841034 3.19789L0.601501 3.14625C0.5516 3.14625 0.496699 3.11844 0.401886 3.08269C0.406876 3.38059 -0.491349 2.28036 0.381927 1.95466ZM1.10553 1.92685C1.1205 1.90302 1.12549 1.89508 1.10553 1.92685V1.92685Z" fill="#32C5FF" fill-opacity="0.2"/>
</svg>
